<svg id="basket" xmlns="http://www.w3.org/2000/svg" width="25" height="22" viewBox="0 0 25 22"><g><g><path fill="#fff" d="M24.777 3.621a1 1 0 0 1 .2.844l-1.94 8.693c-.094.418-.44.729-.865.78L8.738 15.543a1.008 1.008 0 0 1-1.065-.648L2.881 2.006H1.007C.451 2.006 0 1.557 0 1.003 0 .45.451 0 1.007 0h2.575c.422 0 .798.262.945.655l.946 2.59h18.292c.532 0 .82.138 1.012.376zM20.918 17.11c1.368 0 2.44 1.082 2.44 2.464A2.436 2.436 0 0 1 20.918 22c-1.364 0-2.47-1.09-2.47-2.427a2.47 2.47 0 0 1 2.47-2.464zm-13.037 0a2.442 2.442 0 0 1 2.473 2.464c0 1.36-1.086 2.427-2.473 2.427a2.435 2.435 0 0 1-2.437-2.427c0-1.359 1.093-2.464 2.437-2.464z"/></g></g></svg>
