<svg id='cubes' xmlns="http://www.w3.org/2000/svg" width="62" height="14" viewBox="0 0 62 14"><defs><clipPath id="nk1za"><path d="M45.882.08H31.59v13.916h14.292V.08z"/></clipPath><clipPath id="nk1zb"><path d="M61.572.08H47.28v13.916h14.292V.08z"/></clipPath><clipPath id="nk1zc"><path d="M14.512.08H.22v13.916h14.292V.08z"/></clipPath><clipPath id="nk1zd"><path d="M30.2.08H15.91v13.916H30.2V.08z"/></clipPath></defs><g><g><g/><g clip-path="url(#nk1za)"><path fill="#00bf5a" d="M45.803 9.274c.25.678-.114 1.422-.807 1.668l-8.557 2.978c-.694.242-1.459-.11-1.707-.787L31.668 4.8a1.295 1.295 0 0 1 .809-1.665L41.03.157c.695-.244 1.463.11 1.712.785z"/></g></g><g><g/><g clip-path="url(#nk1zb)"><path fill="#4bcaff" d="M47.358 9.274c-.248.678.114 1.422.81 1.668l8.553 2.978c.697.242 1.461-.11 1.711-.787l3.06-8.332c.25-.676-.111-1.421-.808-1.665L52.133.157c-.698-.244-1.462.11-1.713.785z"/></g></g><g><g/><g clip-path="url(#nk1zc)"><path fill="#f04550" d="M14.432 9.274c.252.678-.113 1.422-.806 1.668L5.069 13.92c-.693.242-1.46-.11-1.71-.787L.3 4.8c-.25-.676.114-1.421.81-1.665L9.66.157c.698-.244 1.462.11 1.714.785z"/></g></g><g><g/><g clip-path="url(#nk1zd)"><path fill="#ffbb35" d="M15.989 9.274c-.249.678.112 1.422.807 1.668l8.557 2.978c.696.242 1.46-.11 1.71-.787L30.121 4.8a1.294 1.294 0 0 0-.806-1.665L20.759.157c-.695-.244-1.46.11-1.71.785z"/></g></g></g></svg>
