<svg xmlns="http://www.w3.org/2000/svg" width="88" height="20" viewBox="0 0 88 20"><g><g clip-path="url(#clip-477DD536-24B0-49A3-AE3F-D2B649EA267C)"><path fill="#00bf5a" d="M63.89 13.213c.35.975-.16 2.043-1.13 2.397l-11.974 4.28a1.868 1.868 0 0 1-2.39-1.131L44.11 6.785a1.873 1.873 0 0 1 1.131-2.393L57.211.111a1.873 1.873 0 0 1 2.396 1.128z"/></g><g clip-path="url(#clip-7CE87C64-AA49-4271-A7F1-6F6FCFA8C503)"><path fill="#4bcaff" d="M68.11 13.213a1.878 1.878 0 0 0 1.132 2.397l11.97 4.28a1.873 1.873 0 0 0 2.394-1.131L87.89 6.785a1.87 1.87 0 0 0-1.131-2.393L74.791.111a1.874 1.874 0 0 0-2.396 1.128z"/></g><g clip-path="url(#clip-27A5570E-45B2-4761-B4FA-982773F56A0A)"><path fill="#f04550" d="M19.888 13.213a1.874 1.874 0 0 1-1.128 2.397L6.786 19.89a1.873 1.873 0 0 1-2.392-1.131L.11 6.785a1.87 1.87 0 0 1 1.132-2.393L13.213.111a1.877 1.877 0 0 1 2.397 1.128z"/></g><g clip-path="url(#clip-7DF63C83-E33E-4E2B-8038-223FFA5DAA34)"><path fill="#ffbb35" d="M22.11 13.213a1.877 1.877 0 0 0 1.13 2.397l11.976 4.28a1.872 1.872 0 0 0 2.392-1.131L41.89 6.785a1.872 1.872 0 0 0-1.128-2.393L28.787.111a1.872 1.872 0 0 0-2.394 1.128z"/></g></g></svg>