<svg id="logo" xmlns="http://www.w3.org/2000/svg" width="146" height="23" viewBox="0 0 146 23"><g><g><path fill="#fff" d="M36.183 6.436V17c-.179 0-.503-.019-.945-.062-.46-.036-.702-.06-.758-.06-.174 0-.506.024-.96.06-.47.043-.71.062-.748.062V6.436c-1.098 0-1.839.029-2.227.053-.557.08-1.07.134-1.545.17 0-.094.018-.25.051-.471.046-.21.06-.335.06-.37 0-.114-.014-.273-.06-.485C29.018 5.125 29 5.026 29 5h11c0 .103-.024.262-.073.452-.03.217-.056.333-.056.367 0 .115.026.286.056.487.05.205.073.327.073.353-.637-.059-1.192-.115-1.638-.156a27.756 27.756 0 0 0-2.179-.067"/></g><g><path fill="#fff" d="M50.028 8.526h-.584c-.098-.712-.362-1.288-.788-1.728-.465-.489-1.07-.745-1.822-.745-1.064 0-1.876.562-2.432 1.67-.445.877-.664 1.898-.664 3.067 0 1.491.31 2.64.916 3.45.612.821 1.577 1.22 2.915 1.22a3.92 3.92 0 0 0 1.485-.298c.48-.214.873-.488 1.174-.844l.432.335-.632 1.41c-.306.29-.812.526-1.522.682-.72.166-1.347.255-1.868.255-2.012 0-3.604-.483-4.78-1.479-1.239-1.03-1.858-2.466-1.858-4.3 0-1.898.605-3.42 1.815-4.535C43.017 5.561 44.635 5 46.66 5c.785 0 1.546.078 2.306.241.756.173 1.432.433 2.034.812z"/></g><g><path fill="#fff" d="M53 5.003c.555.064.925.103 1.113.113.195.005.407.005.622.005.52 0 1.102-.036 1.741-.121v5.28c.056.048.124.054.233.02a80.013 80.013 0 0 0 2.42-2.55c1.063-1.206 1.876-2.118 2.439-2.75.123 0 .294.027.526.05.243.035.426.056.559.056.128 0 .297-.02.542-.056.237-.023.406-.05.523-.05v.149c-.45.563-.96 1.13-1.54 1.687-1.665 1.641-2.567 2.543-2.7 2.714l2.045 3.144A83.309 83.309 0 0 1 64 16.823V17c-.2 0-.558-.023-1.09-.064-.524-.042-.804-.06-.83-.06-.225 0-.54.018-.963.06a11.06 11.06 0 0 1-.965.064 62.12 62.12 0 0 0-1.398-2.466 49.452 49.452 0 0 0-1.568-2.495 3.056 3.056 0 0 0-.332-.452 2.434 2.434 0 0 0-.378-.348V17c-.18 0-.504-.023-.986-.064-.463-.042-.72-.06-.755-.06-.187 0-.51.018-.98.06-.47.041-.724.064-.755.064z"/></g><g><path fill="#fff" d="M69.41 12.555a55.568 55.568 0 0 0 2.593-3.58 133.917 133.917 0 0 0 2.473-3.964l1.287.061L77 5.012V17c-.18 0-.493-.017-.955-.06-.454-.046-.704-.061-.75-.061-.282 0-.493 0-.648.015-.15.01-.502.045-1.069.106V9.365a56.448 56.448 0 0 0-2.763 3.858A54.903 54.903 0 0 0 68.519 17c-.083 0-.268-.027-.54-.06a4.433 4.433 0 0 0-.698-.061c-.292 0-.566.015-.808.06-.226.034-.393.061-.473.061V5c.473.037.83.06 1.06.072.232.012.44.024.642.024.48 0 .83 0 1.067-.014a3.19 3.19 0 0 1 .641-.07z"/></g><g><path fill="#fff" d="M81 2.04c.723.666 1.498 1.16 2.328 1.476A6.877 6.877 0 0 0 85.93 4a7.46 7.46 0 0 0 2.703-.513A7.592 7.592 0 0 0 91 2.006L90.22 1c-1.373 1.17-2.788 1.755-4.265 1.755a5.298 5.298 0 0 1-2.114-.444c-.7-.29-1.372-.733-2.024-1.311zm3.405 2.963a3.86 3.86 0 0 0-.637.083c-.225.01-.59.02-1.066.02a5.1 5.1 0 0 1-.646-.039c-.229-.01-.581-.036-1.056-.067v12c.078 0 .237-.02.475-.067.246-.04.512-.058.803-.058.184 0 .412.019.695.058.278.046.458.067.543.067a62.14 62.14 0 0 1 2.283-3.774 63.835 63.835 0 0 1 2.795-3.863V17c.547-.067.912-.1 1.063-.106.145-.012.363-.02.637-.02.048 0 .298.02.756.059.448.046.766.067.95.067V5.003l-1.24.083-1.284-.083a92.023 92.023 0 0 1-2.486 3.971c-.893 1.349-1.746 2.545-2.585 3.58z"/></g><g><path fill="#fff" d="M112.708 8.5a163.79 163.79 0 0 0-2.056 5.155c-.45 1.275-.817 2.383-1.061 3.345-.153 0-.385-.018-.695-.059a6.687 6.687 0 0 0-.712-.053 7.37 7.37 0 0 0-.748.053 6.36 6.36 0 0 1-.708.059l-3.123-8.5a97.709 97.709 0 0 0-.857 4.24c-.31 1.594-.546 3.018-.737 4.26H100a504.666 504.666 0 0 0 1.679-5.945c.56-2.015 1.09-4.033 1.59-6.055.146 0 .383.016.688.059.308.054.537.074.698.074.147 0 .405-.02.75-.074.346-.043.544-.059.603-.059l3.092 8.188c1.035-2.726 2.092-5.452 3.151-8.188.155 0 .38.016.692.059.306.054.541.074.711.074.159 0 .386-.02.68-.074.318-.043.555-.059.704-.059.472 2.4.906 4.4 1.271 6.009A82.544 82.544 0 0 0 118 17c-.206 0-.513-.018-.925-.059a11.236 11.236 0 0 0-.942-.053c-.208 0-.527.017-.956.053-.409.041-.735.059-.936.059z"/></g><g><path fill="#fff" d="M123.405 12.555a55.348 55.348 0 0 0 2.592-3.58c.677-1.019 1.497-2.344 2.476-3.972l1.292.064L131 5.003V17c-.187 0-.506-.02-.955-.067-.45-.04-.705-.058-.747-.058-.287 0-.507.007-.65.019a18.45 18.45 0 0 0-1.063.106V9.363a56.975 56.975 0 0 0-2.784 3.863A60.305 60.305 0 0 0 122.513 17c-.08 0-.266-.02-.54-.067a5.214 5.214 0 0 0-.696-.058c-.302 0-.55.019-.807.058A2.982 2.982 0 0 1 120 17V5c.47.031.824.058 1.06.067.228.03.444.04.639.04.48 0 .832-.01 1.058-.02.3-.056.513-.084.648-.084z"/></g><g><path fill="#fff" d="M26.87 15.177a5.548 5.548 0 0 0 1.392-.797l.26.208-.524 1.34A6.163 6.163 0 0 1 24.458 17a13.4 13.4 0 0 1-.83-.034c-1.65-.141-2.954-.67-3.925-1.626C18.563 14.241 18 12.706 18 10.73c0-1.72.524-3.108 1.563-4.157C20.57 5.56 21.926 5.033 23.628 5h.18c1.826 0 3.179.572 4.052 1.719.764.992 1.14 2.425 1.14 4.279h-7.336c0 1.345.272 2.404.84 3.168.298.42.677.734 1.124.946.486.24 1.067.348 1.727.348.513 0 1.026-.095 1.515-.283M22.4 7.496c-.265.698-.4 1.54-.4 2.504h4c0-.964-.107-1.806-.33-2.504C25.355 6.5 24.865 6 24.197 6c-.064 0-.134 0-.198.01-.712.08-1.245.572-1.598 1.486"/></g><g><path fill="#fff" d="M144.848 6.778C145.612 7.806 146 9.16 146 10.85c0 2.036-.52 3.606-1.561 4.737-.947 1.016-2.149 1.511-3.58 1.511-.382 0-.732-.034-1.052-.1a3.152 3.152 0 0 1-.941-.36 4.333 4.333 0 0 1-1.336-1.276V23c-.64-.083-1.23-.118-1.757-.118-.536 0-1.12.035-1.773.118V5.244c.186 0 .509.003.96.04.454.042.696.05.751.05.186 0 .47-.008.85-.05.371-.037.657-.04.846-.04v2.098a3.91 3.91 0 0 1 1.35-1.714 3.34 3.34 0 0 1 1.05-.487c.345-.099.708-.141 1.102-.141 1.73 0 3.053.593 3.939 1.778m-3.48 7.918c.425-.772.632-1.82.632-3.118 0-1.467-.184-2.593-.544-3.382-.361-.798-.965-1.196-1.82-1.196h-.137c-.96.052-1.65.64-2.072 1.761-.3.782-.427 1.762-.427 2.929 0 1.115.124 2.011.386 2.695.389 1.08 1.082 1.615 2.088 1.615h.025c.825-.085 1.444-.525 1.87-1.304"/></g><g><path fill="#fff" d="M16.842 16.65c0 .16.006.393.048.707.036.295.072.51.11.643h-.395c-.297-.366-.83-.61-1.597-.725a19.161 19.161 0 0 0-2.621-.156H4.785c-1.185 0-2.128.04-2.839.138C1.23 17.35.71 17.6.372 18H0c.046-.205.083-.4.102-.602a8.063 8.063 0 0 0-.02-1.534c-.044-.248-.06-.437-.082-.55h1.1a334.84 334.84 0 0 0 2.218-5.064 180.279 180.279 0 0 0 2.138-5.066c.599-1.45 1.228-3.077 1.89-4.873.046-.109.081-.209.121-.311.117 0 .305.016.54.044.237.034.413.052.54.052.144 0 .328-.018.574-.052A5.32 5.32 0 0 1 9.653 0c.882 2.346 1.87 4.919 2.987 7.694a496.6 496.6 0 0 0 3.113 7.62H17c-.038.238-.064.47-.094.73-.016.25-.044.448-.064.607m-7.878-.68c.751-.017 1.427-.047 2.036-.07a184.49 184.49 0 0 0-1.864-5.364A508.017 508.017 0 0 1 7.113 5l-.12.287a461.549 461.549 0 0 0-2.006 5.147A111.873 111.873 0 0 0 3 15.888c.332.02.94.046 1.825.073.884.03 1.556.039 2.005.039h.163c.633 0 1.288-.01 1.97-.029"/></g></g></svg>
