<svg xmlns="http://www.w3.org/2000/svg" width="20" height="17" viewBox="0 0 20 17"><defs><clipPath id="ia1za"><path fill="#fff" d="M20.14 5.521c0 1.608-.908 2.837-.908 2.837a23.42 23.42 0 0 1-1.999 2.3l-6.002 5.9c-.6.59-1.582.59-2.182 0l-6.002-5.9c-.6-.59-1.5-1.625-1.998-2.3 0 0-.909-1.229-.909-2.837C.14 2.471 2.655 0 5.757 0c1.596 0 3.037.654 4.06 1.704l.113.117a.268.268 0 0 0 .42 0l.114-.117A5.647 5.647 0 0 1 14.523 0c3.102 0 5.617 2.471 5.617 5.521z"/></clipPath></defs><g><g><path fill="none" stroke="#cad6e4" stroke-miterlimit="50" stroke-width="4" d="M20.14 5.521c0 1.608-.908 2.837-.908 2.837a23.42 23.42 0 0 1-1.999 2.3l-6.002 5.9c-.6.59-1.582.59-2.182 0l-6.002-5.9c-.6-.59-1.5-1.625-1.998-2.3 0 0-.909-1.229-.909-2.837C.14 2.471 2.655 0 5.757 0c1.596 0 3.037.654 4.06 1.704l.113.117a.268.268 0 0 0 .42 0l.114-.117A5.647 5.647 0 0 1 14.523 0c3.102 0 5.617 2.471 5.617 5.521z" clip-path="url(&quot;#ia1za&quot;)"/></g></g></svg>