<svg xmlns="http://www.w3.org/2000/svg" width="21" height="23" viewBox="0 0 21 23"><g><g><path fill="#fff" d="M20.679 21.424C19.886 21.921 17.374 23 10.5 23 3.627 23 1.114 21.921.321 21.424a.682.682 0 0 1-.32-.624c.051-.735.407-2.345 2.492-3.077 1.758-.616 3.762-.89 5.064-1.594a1.12 1.12 0 0 0 .173-1.865C6.653 13.39 6.06 12 5.741 10.587c-.557-.404-1.795-2.832-.685-3.287-.247-.843-.827-3.69 1.77-5.75 2.92-2.314 7.35.71 8.501-1.46.06-.112.22-.122.289-.016.351.544 1.033 1.942.137 3.595.18.756.442 2.243.144 3.605 1.453.385-.037 2.922-.639 3.318-.319 1.411-.912 2.798-1.988 3.672a1.12 1.12 0 0 0 .173 1.865c1.302.703 3.306.978 5.064 1.594 2.085.732 2.441 2.342 2.491 3.077a.682.682 0 0 1-.32.624"/></g></g></svg>