<svg xmlns="http://www.w3.org/2000/svg" width="28" height="28" viewBox="0 0 28 28"><g><g><path fill="#fff" d="M22.852 8.321h-2.424c-.57 0-1.029-.462-1.029-1.03V4.867c0-.57.46-1.03 1.03-1.03h2.423c.57 0 1.03.46 1.03 1.03v2.426c0 .567-.46 1.03-1.03 1.03zm0 15.592H4.845c-.57 0-1.03-.46-1.03-1.028V11.644h2.114c-.098.351-.17.714-.222 1.083a7.8 7.8 0 0 0-.09 1.148c0 4.55 3.685 8.237 8.231 8.237 4.547 0 8.233-3.688 8.233-8.237 0-.39-.035-.772-.09-1.147a8.435 8.435 0 0 0-.224-1.083h2.115v11.24c0 .567-.46 1.028-1.03 1.028zM18.995 13.87a5.145 5.145 0 0 1-10.292 0 5.143 5.143 0 0 1 5.145-5.143 5.144 5.144 0 0 1 5.147 5.143zM3.557.49A3.088 3.088 0 0 0 .47 3.578v20.59a3.089 3.089 0 0 0 3.087 3.091h20.584a3.088 3.088 0 0 0 3.086-3.09V3.579A3.087 3.087 0 0 0 24.14.49z"/></g></g></svg>