<svg xmlns="http://www.w3.org/2000/svg" width="16" height="28" viewBox="0 0 16 28"><g><g><g><path fill="#fff" d="M7.758 14.297C3.932 14.297.82 11.201.82 7.395.82 3.587 3.932.49 7.758.49c3.827 0 6.938 3.097 6.938 6.905 0 3.806-3.112 6.902-6.938 6.902zm0-9.763A2.868 2.868 0 0 0 4.886 7.39a2.868 2.868 0 0 0 2.872 2.855 2.868 2.868 0 0 0 2.873-2.855 2.868 2.868 0 0 0-2.873-2.856z"/></g><g><path fill="#fff" d="M10.562 19.926a13.023 13.023 0 0 0 4.029-1.66 2.017 2.017 0 0 0 .638-2.789 2.037 2.037 0 0 0-2.803-.636 8.847 8.847 0 0 1-9.34 0 2.036 2.036 0 0 0-2.803.636 2.017 2.017 0 0 0 .637 2.789 13.036 13.036 0 0 0 4.028 1.66l-3.879 3.86c-.793.79-.793 2.07.001 2.86a2.035 2.035 0 0 0 2.874 0l3.81-3.792 3.813 3.793c.793.79 2.08.79 2.873 0a2.012 2.012 0 0 0 0-2.86l-3.878-3.86"/></g></g></g></svg>