<svg xmlns="http://www.w3.org/2000/svg" width="29" height="24" viewBox="0 0 29 24"><g><g><path fill="#fff" d="M28.82 3.233c-1.06.47-2.2.788-3.396.93a5.922 5.922 0 0 0 2.6-3.27 11.837 11.837 0 0 1-3.754 1.434A5.9 5.9 0 0 0 19.955.46c-3.816 0-6.62 3.562-5.758 7.26A16.776 16.776 0 0 1 2.016 1.542a5.923 5.923 0 0 0 1.828 7.895 5.883 5.883 0 0 1-2.676-.74c-.064 2.74 1.898 5.302 4.74 5.873a5.921 5.921 0 0 1-2.669.1 5.915 5.915 0 0 0 5.522 4.107 11.88 11.88 0 0 1-8.751 2.45 16.727 16.727 0 0 0 9.06 2.656c10.974 0 17.174-9.272 16.8-17.589a12.036 12.036 0 0 0 2.95-3.061z"/></g></g></svg>