<svg xmlns="http://www.w3.org/2000/svg" width="31" height="18" viewBox="0 0 31 18"><g><g><g><path fill="#fff" d="M16.77 17.789c.776 0 1.093-.518 1.084-1.167-.04-2.444.91-3.759 2.624-2.045 1.896 1.897 2.288 3.212 4.59 3.212h4.078c1.03 0 1.434-.332 1.434-.852 0-1.1-1.81-3.042-3.344-4.467-2.148-1.995-2.249-2.042-.399-4.443 2.295-2.982 5.297-6.802 2.641-6.802h-5.072c-.984 0-1.055.554-1.405 1.38-1.268 2.992-3.678 6.867-4.592 6.274-.957-.618-.519-3.067-.446-6.706.019-.961.014-1.62-1.454-1.962a10.277 10.277 0 0 0-2.305-.261c-2.896 0-4.894 1.215-3.759 1.426 2.002.374 1.81 4.707 1.343 6.578-.813 3.258-3.868-2.58-5.14-5.488-.308-.698-.402-1.241-1.498-1.241H1.003C.376 1.225 0 1.429 0 1.882c0 .768 3.771 8.567 7.372 12.455 3.512 3.792 6.982 3.452 9.398 3.452z"/></g></g></g></svg>