<?xml version="1.0" encoding="utf-8"?><svg xmlns="http://www.w3.org/2000/svg" xmlns:xlink="http://www.w3.org/1999/xlink"><symbol viewBox="0 0 25 22" id="basket" xmlns="http://www.w3.org/2000/svg"><path d="M24.777 3.621a1 1 0 01.2.844l-1.94 8.693c-.094.418-.44.729-.865.78L8.738 15.543a1.008 1.008 0 01-1.065-.648L2.881 2.006H1.007A1.005 1.005 0 010 1.003C0 .45.451 0 1.007 0h2.575c.422 0 .798.262.945.655l.946 2.59h18.292c.532 0 .82.138 1.012.376zM20.918 17.11c1.368 0 2.44 1.082 2.44 2.464A2.436 2.436 0 0120.918 22c-1.364 0-2.47-1.09-2.47-2.427a2.47 2.47 0 012.47-2.464zm-13.037 0a2.442 2.442 0 012.473 2.464c0 1.36-1.086 2.427-2.473 2.427a2.435 2.435 0 01-2.437-2.427c0-1.359 1.093-2.464 2.437-2.464z"/></symbol><symbol viewBox="0 0 62 14" id="cubes" xmlns="http://www.w3.org/2000/svg"><defs><clipPath id="ba"><path d="M45.882.08H31.59v13.916h14.292V.08z"/></clipPath><clipPath id="bb"><path d="M61.572.08H47.28v13.916h14.292V.08z"/></clipPath><clipPath id="bc"><path d="M14.512.08H.22v13.916h14.292V.08z"/></clipPath><clipPath id="bd"><path d="M30.2.08H15.91v13.916H30.2V.08z"/></clipPath></defs><g clip-path="url(#ba)"><path fill="#00bf5a" d="M45.803 9.274c.25.678-.114 1.422-.807 1.668l-8.557 2.978c-.694.242-1.459-.11-1.707-.787L31.668 4.8a1.295 1.295 0 01.809-1.665L41.03.157c.695-.244 1.463.11 1.712.785z"/></g><g clip-path="url(#bb)"><path fill="#4bcaff" d="M47.358 9.274c-.248.678.114 1.422.81 1.668l8.553 2.978c.697.242 1.461-.11 1.711-.787l3.06-8.332c.25-.676-.111-1.421-.808-1.665L52.133.157c-.698-.244-1.462.11-1.713.785z"/></g><g clip-path="url(#bc)"><path fill="#f04550" d="M14.432 9.274c.252.678-.113 1.422-.806 1.668L5.069 13.92c-.693.242-1.46-.11-1.71-.787L.3 4.8c-.25-.676.114-1.421.81-1.665L9.66.157c.698-.244 1.462.11 1.714.785z"/></g><g clip-path="url(#bd)"><path fill="#ffbb35" d="M15.989 9.274c-.249.678.112 1.422.807 1.668l8.557 2.978c.696.242 1.46-.11 1.71-.787L30.121 4.8a1.294 1.294 0 00-.806-1.665L20.759.157c-.695-.244-1.46.11-1.71.785z"/></g></symbol><symbol viewBox="0 0 20 18" id="like" xmlns="http://www.w3.org/2000/svg"><path d="M20 5.617c0 1.636-.908 2.887-.908 2.887-.5.686-1.398 1.739-1.999 2.34l-6.002 6.001c-.6.6-1.582.6-2.182 0l-6.002-6.002c-.6-.6-1.5-1.653-1.998-2.34 0 0-.909-1.25-.909-2.886a5.617 5.617 0 019.676-3.883l.114.118a.265.265 0 00.42 0l.114-.118A5.617 5.617 0 0120 5.617z"/></symbol><symbol viewBox="0 0 146 23" id="logo" xmlns="http://www.w3.org/2000/svg"><path d="M36.183 6.436V17c-.179 0-.503-.019-.945-.062-.46-.036-.702-.06-.758-.06a15.9 15.9 0 00-.96.06c-.47.043-.71.062-.748.062V6.436c-1.098 0-1.839.029-2.227.053-.557.08-1.07.134-1.545.17 0-.094.018-.25.051-.471.046-.21.06-.335.06-.37 0-.114-.014-.273-.06-.485C29.018 5.125 29 5.026 29 5h11c0 .103-.024.262-.073.452-.03.217-.056.333-.056.367 0 .115.026.286.056.487.05.205.073.327.073.353-.637-.059-1.192-.115-1.638-.156a27.756 27.756 0 00-2.179-.067m13.845 2.09h-.584c-.098-.712-.362-1.288-.788-1.728-.465-.489-1.07-.745-1.822-.745-1.064 0-1.876.562-2.432 1.67-.445.877-.664 1.898-.664 3.067 0 1.491.31 2.64.916 3.45.612.821 1.577 1.22 2.915 1.22a3.92 3.92 0 001.485-.298c.48-.214.873-.488 1.174-.844l.432.335-.632 1.41c-.306.29-.812.526-1.522.682-.72.166-1.347.255-1.868.255-2.012 0-3.604-.483-4.78-1.479-1.239-1.03-1.858-2.466-1.858-4.3 0-1.898.605-3.42 1.815-4.535C43.017 5.561 44.635 5 46.66 5c.785 0 1.546.078 2.306.241.756.173 1.432.433 2.034.812zM53 5.003c.555.064.925.103 1.113.113.195.005.407.005.622.005.52 0 1.102-.036 1.741-.121v5.28c.056.048.124.054.233.02a80.013 80.013 0 002.42-2.55c1.063-1.206 1.876-2.118 2.439-2.75.123 0 .294.027.526.05.243.035.426.056.559.056.128 0 .297-.02.542-.056.237-.023.406-.05.523-.05v.149c-.45.563-.96 1.13-1.54 1.687-1.665 1.641-2.567 2.543-2.7 2.714l2.045 3.144A83.309 83.309 0 0164 16.823V17c-.2 0-.558-.023-1.09-.064a30.75 30.75 0 00-.83-.06c-.225 0-.54.018-.963.06a11.06 11.06 0 01-.965.064 62.12 62.12 0 00-1.398-2.466 49.452 49.452 0 00-1.568-2.495 3.056 3.056 0 00-.332-.452 2.434 2.434 0 00-.378-.348V17c-.18 0-.504-.023-.986-.064-.463-.042-.72-.06-.755-.06-.187 0-.51.018-.98.06-.47.041-.724.064-.755.064zm16.41 7.552a55.568 55.568 0 002.593-3.58 133.917 133.917 0 002.473-3.964l1.287.061L77 5.012V17a11.5 11.5 0 01-.955-.06 12.307 12.307 0 00-.75-.061c-.282 0-.493 0-.648.015-.15.01-.502.045-1.069.106V9.365a56.448 56.448 0 00-2.763 3.858A54.903 54.903 0 0068.519 17c-.083 0-.268-.027-.54-.06a4.433 4.433 0 00-.698-.061c-.292 0-.566.015-.808.06-.226.034-.393.061-.473.061V5c.473.037.83.06 1.06.072.232.012.44.024.642.024.48 0 .83 0 1.067-.014a3.19 3.19 0 01.641-.07zM81 2.04c.723.666 1.498 1.16 2.328 1.476A6.877 6.877 0 0085.93 4a7.46 7.46 0 002.703-.513A7.592 7.592 0 0091 2.006L90.22 1c-1.373 1.17-2.788 1.755-4.265 1.755a5.298 5.298 0 01-2.114-.444c-.7-.29-1.372-.733-2.024-1.311zm3.405 2.963a3.86 3.86 0 00-.637.083c-.225.01-.59.02-1.066.02a5.1 5.1 0 01-.646-.039c-.229-.01-.581-.036-1.056-.067v12c.078 0 .237-.02.475-.067.246-.04.512-.058.803-.058.184 0 .412.019.695.058.278.046.458.067.543.067a62.14 62.14 0 012.283-3.774 63.835 63.835 0 012.795-3.863V17c.547-.067.912-.1 1.063-.106a8.25 8.25 0 01.637-.02c.048 0 .298.02.756.059.448.046.766.067.95.067V5.003l-1.24.083-1.284-.083a92.023 92.023 0 01-2.486 3.971c-.893 1.349-1.746 2.545-2.585 3.58zM112.708 8.5a163.79 163.79 0 00-2.056 5.155c-.45 1.275-.817 2.383-1.061 3.345-.153 0-.385-.018-.695-.059a6.687 6.687 0 00-.712-.053 7.37 7.37 0 00-.748.053 6.36 6.36 0 01-.708.059l-3.123-8.5a97.709 97.709 0 00-.857 4.24c-.31 1.594-.546 3.018-.737 4.26H100a504.666 504.666 0 001.679-5.945A218.43 218.43 0 00103.269 5c.146 0 .383.016.688.059.308.054.537.074.698.074.147 0 .405-.02.75-.074.346-.043.544-.059.603-.059l3.092 8.188c1.035-2.726 2.092-5.452 3.151-8.188.155 0 .38.016.692.059.306.054.541.074.711.074.159 0 .386-.02.68-.074.318-.043.555-.059.704-.059.472 2.4.906 4.4 1.271 6.009A82.544 82.544 0 00118 17c-.206 0-.513-.018-.925-.059a11.236 11.236 0 00-.942-.053 12.5 12.5 0 00-.956.053c-.409.041-.735.059-.936.059zm10.697 4.055a55.348 55.348 0 002.592-3.58c.677-1.019 1.497-2.344 2.476-3.972l1.292.064L131 5.003V17c-.187 0-.506-.02-.955-.067a18.76 18.76 0 00-.747-.058c-.287 0-.507.007-.65.019a18.45 18.45 0 00-1.063.106V9.363a56.975 56.975 0 00-2.784 3.863A60.305 60.305 0 00122.513 17c-.08 0-.266-.02-.54-.067a5.214 5.214 0 00-.696-.058c-.302 0-.55.019-.807.058A2.982 2.982 0 01120 17V5c.47.031.824.058 1.06.067.228.03.444.04.639.04.48 0 .832-.01 1.058-.02.3-.056.513-.084.648-.084zM26.87 15.177a5.548 5.548 0 001.392-.797l.26.208-.524 1.34A6.163 6.163 0 0124.458 17a13.4 13.4 0 01-.83-.034c-1.65-.141-2.954-.67-3.925-1.626C18.563 14.241 18 12.706 18 10.73c0-1.72.524-3.108 1.563-4.157C20.57 5.56 21.926 5.033 23.628 5h.18c1.826 0 3.179.572 4.052 1.719.764.992 1.14 2.425 1.14 4.279h-7.336c0 1.345.272 2.404.84 3.168.298.42.677.734 1.124.946.486.24 1.067.348 1.727.348a4.22 4.22 0 001.515-.283M22.4 7.496c-.265.698-.4 1.54-.4 2.504h4c0-.964-.107-1.806-.33-2.504C25.355 6.5 24.865 6 24.197 6c-.064 0-.134 0-.198.01-.712.08-1.245.572-1.598 1.486m122.447-.718C145.612 7.806 146 9.16 146 10.85c0 2.036-.52 3.606-1.561 4.737-.947 1.016-2.149 1.511-3.58 1.511-.382 0-.732-.034-1.052-.1a3.152 3.152 0 01-.941-.36 4.333 4.333 0 01-1.336-1.276V23c-.64-.083-1.23-.118-1.757-.118-.536 0-1.12.035-1.773.118V5.244c.186 0 .509.003.96.04.454.042.696.05.751.05.186 0 .47-.008.85-.05.371-.037.657-.04.846-.04v2.098a3.91 3.91 0 011.35-1.714 3.34 3.34 0 011.05-.487A3.957 3.957 0 01140.909 5c1.73 0 3.053.593 3.939 1.778m-3.48 7.918c.425-.772.632-1.82.632-3.118 0-1.467-.184-2.593-.544-3.382-.361-.798-.965-1.196-1.82-1.196h-.137c-.96.052-1.65.64-2.072 1.761-.3.782-.427 1.762-.427 2.929 0 1.115.124 2.011.386 2.695.389 1.08 1.082 1.615 2.088 1.615h.025c.825-.085 1.444-.525 1.87-1.304M16.842 16.65c0 .16.006.393.048.707.036.295.072.51.11.643h-.395c-.297-.366-.83-.61-1.597-.725a19.161 19.161 0 00-2.621-.156H4.785c-1.185 0-2.128.04-2.839.138C1.23 17.35.71 17.6.372 18H0c.046-.205.083-.4.102-.602a8.063 8.063 0 00-.02-1.534c-.044-.248-.06-.437-.082-.55h1.1a334.84 334.84 0 002.218-5.064 180.279 180.279 0 002.138-5.066A136.86 136.86 0 007.346.311c.046-.109.081-.209.121-.311.117 0 .305.016.54.044.237.034.413.052.54.052.144 0 .328-.018.574-.052A5.32 5.32 0 019.653 0a355.16 355.16 0 002.987 7.694 496.6 496.6 0 003.113 7.62H17c-.038.238-.064.47-.094.73-.016.25-.044.448-.064.607m-7.878-.68c.751-.017 1.427-.047 2.036-.07a184.49 184.49 0 00-1.864-5.364A508.017 508.017 0 017.113 5l-.12.287a461.549 461.549 0 00-2.006 5.147A111.873 111.873 0 003 15.888c.332.02.94.046 1.825.073.884.03 1.556.039 2.005.039h.163c.633 0 1.288-.01 1.97-.029"/></symbol><symbol viewBox="0 0 20 17" id="not-like" xmlns="http://www.w3.org/2000/svg"><defs><clipPath id="ea"><path d="M20.14 5.521c0 1.608-.908 2.837-.908 2.837a23.42 23.42 0 01-1.999 2.3l-6.002 5.9c-.6.59-1.582.59-2.182 0l-6.002-5.9c-.6-.59-1.5-1.625-1.998-2.3 0 0-.909-1.229-.909-2.837C.14 2.471 2.655 0 5.757 0c1.596 0 3.037.654 4.06 1.704l.113.117a.268.268 0 00.42 0l.114-.117A5.647 5.647 0 0114.523 0c3.102 0 5.617 2.471 5.617 5.521z"/></clipPath></defs><path fill="none" stroke="#cad6e4" stroke-miterlimit="50" stroke-width="4" d="M20.14 5.521c0 1.608-.908 2.837-.908 2.837a23.42 23.42 0 01-1.999 2.3l-6.002 5.9c-.6.59-1.582.59-2.182 0l-6.002-5.9c-.6-.59-1.5-1.625-1.998-2.3 0 0-.909-1.229-.909-2.837C.14 2.471 2.655 0 5.757 0c1.596 0 3.037.654 4.06 1.704l.113.117a.268.268 0 00.42 0l.114-.117A5.647 5.647 0 0114.523 0c3.102 0 5.617 2.471 5.617 5.521z" clip-path="url(#ea)"/></symbol><symbol viewBox="0 0 17 25" id="point" xmlns="http://www.w3.org/2000/svg"><path d="M8.5 0C13.194 0 17 3.84 17 8.577 17 13.315 11.447 20.94 8.5 25 5.553 20.94 0 13.315 0 8.577 0 3.84 3.805 0 8.5 0m0 12a3.5 3.5 0 100-7 3.5 3.5 0 000 7"/></symbol><symbol viewBox="0 0 13 26" id="socials--facebook" xmlns="http://www.w3.org/2000/svg"><path d="M3.239 8.657H.08v4.214h3.159v12.641h5.264V12.871h3.835l.377-4.214H8.503V6.901c0-1.006.203-1.404 1.174-1.404h3.038V.23h-4.01C4.92.23 3.24 1.898 3.24 5.092v3.565z"/></symbol><symbol viewBox="0 0 28 28" id="socials--instagram" xmlns="http://www.w3.org/2000/svg"><path d="M22.852 8.321h-2.424c-.57 0-1.029-.462-1.029-1.03V4.867c0-.57.46-1.03 1.03-1.03h2.423c.57 0 1.03.46 1.03 1.03v2.426c0 .567-.46 1.03-1.03 1.03zm0 15.592H4.845c-.57 0-1.03-.46-1.03-1.028V11.644h2.114c-.098.351-.17.714-.222 1.083a7.8 7.8 0 00-.09 1.148c0 4.55 3.685 8.237 8.231 8.237a8.235 8.235 0 008.233-8.237c0-.39-.035-.772-.09-1.147a8.435 8.435 0 00-.224-1.083h2.115v11.24c0 .567-.46 1.028-1.03 1.028zM18.995 13.87a5.145 5.145 0 01-10.292 0 5.143 5.143 0 015.145-5.143 5.144 5.144 0 015.147 5.143zM3.557.49A3.088 3.088 0 00.47 3.578v20.59a3.089 3.089 0 003.087 3.091h20.584a3.088 3.088 0 003.086-3.09V3.579A3.087 3.087 0 0024.14.49z"/></symbol><symbol viewBox="0 0 16 28" id="socials--ok" xmlns="http://www.w3.org/2000/svg"><path d="M7.758 14.297C3.932 14.297.82 11.201.82 7.395.82 3.587 3.932.49 7.758.49c3.827 0 6.938 3.097 6.938 6.905 0 3.806-3.112 6.902-6.938 6.902zm0-9.763A2.868 2.868 0 004.886 7.39a2.868 2.868 0 002.872 2.855 2.868 2.868 0 002.873-2.855 2.868 2.868 0 00-2.873-2.856zm2.804 15.392a13.023 13.023 0 004.029-1.66 2.017 2.017 0 00.638-2.789 2.037 2.037 0 00-2.803-.636 8.847 8.847 0 01-9.34 0 2.036 2.036 0 00-2.803.636 2.017 2.017 0 00.637 2.789 13.036 13.036 0 004.028 1.66l-3.879 3.86c-.793.79-.793 2.07.001 2.86a2.035 2.035 0 002.874 0l3.81-3.792 3.813 3.793c.793.79 2.08.79 2.873 0a2.012 2.012 0 000-2.86l-3.878-3.86"/></symbol><symbol viewBox="0 0 29 24" id="socials--twitter" xmlns="http://www.w3.org/2000/svg"><path d="M28.82 3.233c-1.06.47-2.2.788-3.396.93a5.922 5.922 0 002.6-3.27 11.837 11.837 0 01-3.754 1.434A5.9 5.9 0 0019.955.46c-3.816 0-6.62 3.562-5.758 7.26A16.776 16.776 0 012.016 1.542a5.923 5.923 0 001.828 7.895 5.883 5.883 0 01-2.676-.74c-.064 2.74 1.898 5.302 4.74 5.873a5.921 5.921 0 01-2.669.1 5.915 5.915 0 005.522 4.107 11.88 11.88 0 01-8.751 2.45 16.727 16.727 0 009.06 2.656c10.974 0 17.174-9.272 16.8-17.589a12.036 12.036 0 002.95-3.061z"/></symbol><symbol viewBox="0 0 31 18" id="socials--vk" xmlns="http://www.w3.org/2000/svg"><path d="M16.77 17.789c.776 0 1.093-.518 1.084-1.167-.04-2.444.91-3.759 2.624-2.045 1.896 1.897 2.288 3.212 4.59 3.212h4.078c1.03 0 1.434-.332 1.434-.852 0-1.1-1.81-3.042-3.344-4.467-2.148-1.995-2.249-2.042-.399-4.443 2.295-2.982 5.297-6.802 2.641-6.802h-5.072c-.984 0-1.055.554-1.405 1.38-1.268 2.992-3.678 6.867-4.592 6.274-.957-.618-.519-3.067-.446-6.706.019-.961.014-1.62-1.454-1.962a10.277 10.277 0 00-2.305-.261c-2.896 0-4.894 1.215-3.759 1.426 2.002.374 1.81 4.707 1.343 6.578-.813 3.258-3.868-2.58-5.14-5.488-.308-.698-.402-1.241-1.498-1.241H1.003C.376 1.225 0 1.429 0 1.882c0 .768 3.771 8.567 7.372 12.455 3.512 3.792 6.982 3.452 9.398 3.452z"/></symbol><symbol viewBox="0 0 25 29" id="socials--youtube" xmlns="http://www.w3.org/2000/svg"><path d="M23.052 22.619v-2.001c0-1.421-.676-2.313-2.078-2.313-1.318 0-2.22.949-2.22 2.313v3.53c0 1.415.715 2.432 2.11 2.432 1.54 0 2.19-.918 2.19-2.432v-.591H21.55v.546c0 .684-.036 1.1-.654 1.1-.587 0-.637-.51-.637-1.1v-1.484zm-5.407 2.117v-4.36c0-1.067-.355-1.972-1.422-1.972-.52 0-.968.333-1.297.735v-3.432h-1.47v10.658h1.47v-.604c.406.508.851.704 1.385.704.97 0 1.332-.756 1.332-1.729zm-5.617 1.629v-7.862h-1.462v5.968c-.177.223-.574.589-.859.589-.312 0-.388-.213-.388-.53v-6.027h-1.46v6.571c0 1.595 1.08 1.606 1.868 1.154.29-.166.571-.41.84-.73v.867zm-5.853-.01v-9.102h1.703v-1.546H2.827v1.546H4.53v9.102zM21.06 13.453c3.402.232 3.8 2.295 3.825 7.693-.026 5.406-.427 7.462-3.825 7.694-3.145.213-13.366.213-16.506 0-3.402-.232-3.8-2.296-3.825-7.694.025-5.407.426-7.461 3.825-7.693 3.14-.214 13.36-.214 16.506 0zm-5.83 6.277c.256-.13.585-.104.763.13.104.137.156.338.156.603v4.06c0 .25-.042.43-.127.542-.162.21-.51.202-.748.08a1.281 1.281 0 01-.346-.276v-4.9c.1-.107.2-.187.302-.24zm5.68-.048c.526 0 .639.389.638.92v.798h-1.292v-.796c0-.542.113-.922.654-.922zM18.244 2.936h1.53v8.254h-1.53v-.91c-.663.788-1.307 1.03-1.77 1.03-.82 0-1.068-.658-1.068-1.474v-6.9h1.53v6.33c0 .33.08.555.407.555.298 0 .714-.384.9-.618zm-5.706 6.127V5.22c0-.461-.201-.786-.672-.786-.431 0-.64.334-.64.786v3.842c0 .433.246.78.67.78.413 0 .642-.33.642-.78zm-.64-6.196c1.242 0 2.205.925 2.205 2.215v4.042c0 1.386-.971 2.21-2.206 2.21-1.488 0-2.248-.757-2.248-2.21V5.082c0-1.321.897-2.215 2.248-2.215zM5.674 0L6.87 4.473 7.979 0h1.759L7.724 6.652v4.54H5.992v-4.54L3.933 0z"/></symbol><symbol viewBox="0 0 0 0" id="symbol--sprite" xmlns="http://www.w3.org/2000/svg"/><symbol viewBox="0 0 21 23" id="user" xmlns="http://www.w3.org/2000/svg"><path d="M20.679 21.424C19.886 21.921 17.374 23 10.5 23 3.627 23 1.114 21.921.321 21.424a.682.682 0 01-.32-.624c.051-.735.407-2.345 2.492-3.077 1.758-.616 3.762-.89 5.064-1.594a1.12 1.12 0 00.173-1.865C6.653 13.39 6.06 12 5.741 10.587c-.557-.404-1.795-2.832-.685-3.287-.247-.843-.827-3.69 1.77-5.75 2.92-2.314 7.35.71 8.501-1.46.06-.112.22-.122.289-.016.351.544 1.033 1.942.137 3.595.18.756.442 2.243.144 3.605 1.453.385-.037 2.922-.639 3.318-.319 1.411-.912 2.798-1.988 3.672a1.12 1.12 0 00.173 1.865c1.302.703 3.306.978 5.064 1.594 2.085.732 2.441 2.342 2.491 3.077a.682.682 0 01-.32.624"/></symbol></svg>