<svg id="yputube" xmlns="http://www.w3.org/2000/svg" width="25" height="29" viewBox="0 0 25 29"><g><g><path fill="#fff" d="M23.052 22.619v-2.001c0-1.421-.676-2.313-2.078-2.313-1.318 0-2.22.949-2.22 2.313v3.53c0 1.415.715 2.432 2.11 2.432 1.54 0 2.19-.918 2.19-2.432v-.591H21.55v.546c0 .684-.036 1.1-.654 1.1-.587 0-.637-.51-.637-1.1v-1.484zm-5.407 2.117v-4.36c0-1.067-.355-1.972-1.422-1.972-.52 0-.968.333-1.297.735v-3.432h-1.47v10.658h1.47v-.604c.406.508.851.704 1.385.704.97 0 1.332-.756 1.332-1.729zm-5.617 1.629v-7.862h-1.462v5.968c-.177.223-.574.589-.859.589-.312 0-.388-.213-.388-.53v-6.027h-1.46v6.571c0 1.595 1.08 1.606 1.868 1.154.29-.166.571-.41.84-.73v.867zm-5.853-.01v-9.102h1.703v-1.546H2.827v1.546H4.53v9.102zM21.06 13.453c3.402.232 3.8 2.295 3.825 7.693-.026 5.406-.427 7.462-3.825 7.694-3.145.213-13.366.213-16.506 0-3.402-.232-3.8-2.296-3.825-7.694.025-5.407.426-7.461 3.825-7.693 3.14-.214 13.36-.214 16.506 0zm-5.83 6.277c.256-.13.585-.104.763.13.104.137.156.338.156.603v4.06c0 .25-.042.43-.127.542-.162.21-.51.202-.748.08a1.281 1.281 0 0 1-.346-.276v-4.9c.1-.107.2-.187.302-.24zm5.68-.048c.526 0 .639.389.638.92v.798h-1.292v-.796c0-.542.113-.922.654-.922zM18.244 2.936h1.53v8.254h-1.53v-.91c-.663.788-1.307 1.03-1.77 1.03-.82 0-1.068-.658-1.068-1.474v-6.9h1.53v6.33c0 .33.08.555.407.555.298 0 .714-.384.9-.618zm-5.706 6.127V5.22c0-.461-.201-.786-.672-.786-.431 0-.64.334-.64.786v3.842c0 .433.246.78.67.78.413 0 .642-.33.642-.78zm-.64-6.196c1.242 0 2.205.925 2.205 2.215v4.042c0 1.386-.971 2.21-2.206 2.21-1.488 0-2.248-.757-2.248-2.21V5.082c0-1.321.897-2.215 2.248-2.215zM5.674 0l1.196 4.473L7.979 0h1.759L7.724 6.652v4.54H5.992v-4.54L3.933 0z"/></g></g></svg>
